v 0.200000 0.000000 0.000000
v 0.200000 1.000000 0.000000
v 0.141421 0.000000 0.141421
v 0.141421 1.000000 0.141421
v 0.000000 0.000000 0.200000
v 0.000000 1.000000 0.200000
v -0.141421 0.000000 0.141421
v -0.141421 1.000000 0.141421
v -0.200000 0.000000 0.000000
v -0.200000 1.000000 0.000000
v -0.141421 0.000000 -0.141421
v -0.141421 1.000000 -0.141421
v -0.000000 0.000000 -0.200000
v -0.000000 1.000000 -0.200000
v 0.141421 0.000000 -0.141421
v 0.141421 1.000000 -0.141421
vn 0.200000 0.0 0.000000
vn 0.141421 0.0 0.141421
vn 0.000000 0.0 0.200000
vn -0.141421 0.0 0.141421
vn -0.200000 0.0 0.000000
vn -0.141421 0.0 -0.141421
vn -0.000000 0.0 -0.200000
vn 0.141421 0.0 -0.141421
f 1//1 2//1 4//2 3//2
f 3//2 4//2 6//3 5//3
f 5//3 6//3 8//4 7//4
f 7//4 8//4 10//5 9//5
f 9//5 10//5 12//6 11//6
f 11//6 12//6 14//7 13//7
f 13//7 14//7 16//8 15//8
f 15//8 16//8 2//1 1//1
